# xmcd
#
# Track frame offsets:
#	150
#	16287
#	37297
#	52372
#	75310
#	94042
#	107560
#	125079
#	141852
#	157735
#	173580
#	189947
#	208782
#	228810
#
# Disc length: 3121 seconds
#
# Revision: 1
# Processed by: cddbd v1.4PL0 Copyright (c) Steve Scherf et al.
# Submitted via: audiograbber 1.81.03
#
DISCID=b20c2f0e
DTITLE=Roger Manning - Roger Manning
DYEAR=1995
DGENRE=
TTITLE0=The Bohemia Blues
TTITLE1=The Pearly Blues #6
TTITLE2=The War Museum Blues
TTITLE3=The Driving Blues #2
TTITLE4=The Driving Blues #3
TTITLE5=The Rear View Mirror Blues
TTITLE6=The Pearly Blues #8
TTITLE7=The Driving Blues
TTITLE8=The East 5th St. Blues #5
TTITLE9=The Hitchhiker Blues #5 (Midnight Blues)
TTITLE10=The Hitchhiker Blues #4
TTITLE11=The Projection Blues
TTITLE12=The IOS Blues #2
TTITLE13=The Hitchhiker Blues #3 (Pearly Blues #4)
EXTD=
EXTT0=
EXTT1=
EXTT2=
EXTT3=
EXTT4=
EXTT5=
EXTT6=
EXTT7=
EXTT8=
EXTT9=
EXTT10=
EXTT11=
EXTT12=
EXTT13=
PLAYORDER=
